<mxfile host="app.diagrams.net" modified="2023-02-01T15:49:35.231Z" agent="5.0 (Windows NT 10.0; Win64; x64) AppleWebKit/537.36 (KHTML, like Gecko) Chrome/109.0.0.0 Safari/537.36" etag="GS-MdjdDfjtM3ffCqpVT" version="20.8.13" type="github">
  <diagram name="第 1 页" id="N6lhYl9x0cFy-dcrSgTa">
    <mxGraphModel dx="1052" dy="642" grid="1" gridSize="10" guides="1" tooltips="1" connect="1" arrows="1" fold="1" page="1" pageScale="1" pageWidth="827" pageHeight="1169" math="1" shadow="0">
      <root>
        <mxCell id="0" />
        <mxCell id="1" parent="0" />
        <mxCell id="HMImB51M19TBt90D2M0y-1" value="" style="edgeStyle=orthogonalEdgeStyle;rounded=0;orthogonalLoop=1;jettySize=auto;html=1;" edge="1" parent="1" source="HMImB51M19TBt90D2M0y-2" target="HMImB51M19TBt90D2M0y-3">
          <mxGeometry relative="1" as="geometry" />
        </mxCell>
        <mxCell id="HMImB51M19TBt90D2M0y-2" value="$$S_1$$" style="text;html=1;strokeColor=none;fillColor=none;align=center;verticalAlign=middle;whiteSpace=wrap;rounded=0;" vertex="1" parent="1">
          <mxGeometry x="240" y="110" width="40" height="20" as="geometry" />
        </mxCell>
        <mxCell id="HMImB51M19TBt90D2M0y-3" value="$$S_1\prime$$" style="text;html=1;strokeColor=none;fillColor=none;align=center;verticalAlign=middle;whiteSpace=wrap;rounded=0;" vertex="1" parent="1">
          <mxGeometry x="240" y="210" width="40" height="20" as="geometry" />
        </mxCell>
        <mxCell id="HMImB51M19TBt90D2M0y-4" value="" style="edgeStyle=orthogonalEdgeStyle;rounded=0;orthogonalLoop=1;jettySize=auto;html=1;" edge="1" parent="1" source="HMImB51M19TBt90D2M0y-5" target="HMImB51M19TBt90D2M0y-7">
          <mxGeometry relative="1" as="geometry" />
        </mxCell>
        <mxCell id="HMImB51M19TBt90D2M0y-5" value="$$S_2$$" style="text;html=1;strokeColor=none;fillColor=none;align=center;verticalAlign=middle;whiteSpace=wrap;rounded=0;" vertex="1" parent="1">
          <mxGeometry x="360" y="110" width="40" height="20" as="geometry" />
        </mxCell>
        <mxCell id="HMImB51M19TBt90D2M0y-6" value="" style="endArrow=none;html=1;exitX=1;exitY=0.5;exitDx=0;exitDy=0;entryX=0;entryY=0.5;entryDx=0;entryDy=0;" edge="1" parent="1" source="HMImB51M19TBt90D2M0y-2" target="HMImB51M19TBt90D2M0y-5">
          <mxGeometry width="50" height="50" relative="1" as="geometry">
            <mxPoint x="380" y="240" as="sourcePoint" />
            <mxPoint x="430" y="190" as="targetPoint" />
          </mxGeometry>
        </mxCell>
        <mxCell id="HMImB51M19TBt90D2M0y-7" value="$$S_2\prime$$" style="text;html=1;strokeColor=none;fillColor=none;align=center;verticalAlign=middle;whiteSpace=wrap;rounded=0;" vertex="1" parent="1">
          <mxGeometry x="360" y="210" width="40" height="20" as="geometry" />
        </mxCell>
        <mxCell id="HMImB51M19TBt90D2M0y-8" value="" style="endArrow=none;dashed=1;html=1;dashPattern=1 3;strokeWidth=2;exitX=1;exitY=0.75;exitDx=0;exitDy=0;entryX=0;entryY=0.75;entryDx=0;entryDy=0;" edge="1" parent="1" source="HMImB51M19TBt90D2M0y-3" target="HMImB51M19TBt90D2M0y-7">
          <mxGeometry width="50" height="50" relative="1" as="geometry">
            <mxPoint x="380" y="240" as="sourcePoint" />
            <mxPoint x="430" y="190" as="targetPoint" />
          </mxGeometry>
        </mxCell>
        <mxCell id="HMImB51M19TBt90D2M0y-9" value="$$step_1$$" style="text;html=1;strokeColor=none;fillColor=none;align=center;verticalAlign=middle;whiteSpace=wrap;rounded=0;" vertex="1" parent="1">
          <mxGeometry x="220" y="160" width="40" height="20" as="geometry" />
        </mxCell>
        <mxCell id="HMImB51M19TBt90D2M0y-10" value="$$step_2$$" style="text;html=1;strokeColor=none;fillColor=none;align=center;verticalAlign=middle;whiteSpace=wrap;rounded=0;" vertex="1" parent="1">
          <mxGeometry x="340" y="160" width="40" height="20" as="geometry" />
        </mxCell>
        <mxCell id="HMImB51M19TBt90D2M0y-11" value="$$\sim$$" style="text;html=1;strokeColor=none;fillColor=none;align=center;verticalAlign=middle;whiteSpace=wrap;rounded=0;" vertex="1" parent="1">
          <mxGeometry x="300" y="100" width="40" height="20" as="geometry" />
        </mxCell>
        <mxCell id="HMImB51M19TBt90D2M0y-12" value="$$\sim$$" style="text;html=1;strokeColor=none;fillColor=none;align=center;verticalAlign=middle;whiteSpace=wrap;rounded=0;" vertex="1" parent="1">
          <mxGeometry x="300" y="200" width="40" height="20" as="geometry" />
        </mxCell>
        <mxCell id="HMImB51M19TBt90D2M0y-13" value="$$+$$" style="text;html=1;strokeColor=none;fillColor=none;align=center;verticalAlign=middle;whiteSpace=wrap;rounded=0;" vertex="1" parent="1">
          <mxGeometry x="374" y="160" width="40" height="20" as="geometry" />
        </mxCell>
        <mxCell id="HMImB51M19TBt90D2M0y-14" value="" style="edgeStyle=orthogonalEdgeStyle;rounded=0;orthogonalLoop=1;jettySize=auto;html=1;" edge="1" parent="1" source="HMImB51M19TBt90D2M0y-15" target="HMImB51M19TBt90D2M0y-16">
          <mxGeometry relative="1" as="geometry" />
        </mxCell>
        <mxCell id="HMImB51M19TBt90D2M0y-15" value="$$S_1$$" style="text;html=1;strokeColor=none;fillColor=none;align=center;verticalAlign=middle;whiteSpace=wrap;rounded=0;" vertex="1" parent="1">
          <mxGeometry x="470" y="110" width="40" height="20" as="geometry" />
        </mxCell>
        <mxCell id="HMImB51M19TBt90D2M0y-16" value="$$S_1\prime$$" style="text;html=1;strokeColor=none;fillColor=none;align=center;verticalAlign=middle;whiteSpace=wrap;rounded=0;" vertex="1" parent="1">
          <mxGeometry x="470" y="210" width="40" height="20" as="geometry" />
        </mxCell>
        <mxCell id="HMImB51M19TBt90D2M0y-17" value="" style="edgeStyle=orthogonalEdgeStyle;rounded=0;orthogonalLoop=1;jettySize=auto;html=1;" edge="1" parent="1" source="HMImB51M19TBt90D2M0y-18" target="HMImB51M19TBt90D2M0y-20">
          <mxGeometry relative="1" as="geometry" />
        </mxCell>
        <mxCell id="HMImB51M19TBt90D2M0y-18" value="$$S_2$$" style="text;html=1;strokeColor=none;fillColor=none;align=center;verticalAlign=middle;whiteSpace=wrap;rounded=0;" vertex="1" parent="1">
          <mxGeometry x="590" y="110" width="40" height="20" as="geometry" />
        </mxCell>
        <mxCell id="HMImB51M19TBt90D2M0y-19" value="" style="endArrow=none;html=1;exitX=1;exitY=0.5;exitDx=0;exitDy=0;entryX=0;entryY=0.5;entryDx=0;entryDy=0;" edge="1" parent="1" source="HMImB51M19TBt90D2M0y-15" target="HMImB51M19TBt90D2M0y-18">
          <mxGeometry width="50" height="50" relative="1" as="geometry">
            <mxPoint x="610" y="240" as="sourcePoint" />
            <mxPoint x="660" y="190" as="targetPoint" />
          </mxGeometry>
        </mxCell>
        <mxCell id="HMImB51M19TBt90D2M0y-20" value="$$S_2\prime$$" style="text;html=1;strokeColor=none;fillColor=none;align=center;verticalAlign=middle;whiteSpace=wrap;rounded=0;" vertex="1" parent="1">
          <mxGeometry x="590" y="210" width="40" height="20" as="geometry" />
        </mxCell>
        <mxCell id="HMImB51M19TBt90D2M0y-21" value="" style="endArrow=none;dashed=1;html=1;dashPattern=1 3;strokeWidth=2;exitX=1;exitY=0.75;exitDx=0;exitDy=0;entryX=0;entryY=0.75;entryDx=0;entryDy=0;" edge="1" parent="1" source="HMImB51M19TBt90D2M0y-16" target="HMImB51M19TBt90D2M0y-20">
          <mxGeometry width="50" height="50" relative="1" as="geometry">
            <mxPoint x="610" y="240" as="sourcePoint" />
            <mxPoint x="660" y="190" as="targetPoint" />
          </mxGeometry>
        </mxCell>
        <mxCell id="HMImB51M19TBt90D2M0y-22" value="$$step_1$$" style="text;html=1;strokeColor=none;fillColor=none;align=center;verticalAlign=middle;whiteSpace=wrap;rounded=0;" vertex="1" parent="1">
          <mxGeometry x="450" y="160" width="40" height="20" as="geometry" />
        </mxCell>
        <mxCell id="HMImB51M19TBt90D2M0y-23" value="$$step_2$$" style="text;html=1;strokeColor=none;fillColor=none;align=center;verticalAlign=middle;whiteSpace=wrap;rounded=0;" vertex="1" parent="1">
          <mxGeometry x="570" y="160" width="40" height="20" as="geometry" />
        </mxCell>
        <mxCell id="HMImB51M19TBt90D2M0y-24" value="$$\sim$$" style="text;html=1;strokeColor=none;fillColor=none;align=center;verticalAlign=middle;whiteSpace=wrap;rounded=0;" vertex="1" parent="1">
          <mxGeometry x="530" y="100" width="40" height="20" as="geometry" />
        </mxCell>
        <mxCell id="HMImB51M19TBt90D2M0y-25" value="$$\sim$$" style="text;html=1;strokeColor=none;fillColor=none;align=center;verticalAlign=middle;whiteSpace=wrap;rounded=0;" vertex="1" parent="1">
          <mxGeometry x="530" y="200" width="40" height="20" as="geometry" />
        </mxCell>
        <mxCell id="HMImB51M19TBt90D2M0y-26" value="$$*$$" style="text;html=1;strokeColor=none;fillColor=none;align=center;verticalAlign=middle;whiteSpace=wrap;rounded=0;" vertex="1" parent="1">
          <mxGeometry x="610" y="160" width="40" height="20" as="geometry" />
        </mxCell>
        <mxCell id="HMImB51M19TBt90D2M0y-27" value="&lt;font face=&quot;Times New Roman&quot; style=&quot;font-size: 16px;&quot;&gt;or&lt;/font&gt;" style="text;html=1;strokeColor=none;fillColor=none;align=center;verticalAlign=middle;whiteSpace=wrap;rounded=0;" vertex="1" parent="1">
          <mxGeometry x="400" y="190" width="60" height="30" as="geometry" />
        </mxCell>
      </root>
    </mxGraphModel>
  </diagram>
</mxfile>
